<svg width="176" height="32" viewBox="0 0 176 32" fill="none" xmlns="http://www.w3.org/2000/svg">
<g clip-path="url(#clip0_722_1613)">
<path d="M25.8647 7.37409C25.6851 7.32087 26.1753 9.35935 25.8423 11.9875C25.5759 14.09 24.8384 15.7295 24.3032 16.6453C23.664 17.7363 22.8511 18.7158 21.8966 19.5452C22.1 19.4819 22.3891 19.3847 22.7269 19.2449C24.2279 18.6242 25.5812 17.6241 26.2754 16.7773C28.9053 13.5692 26.2681 7.49362 25.8647 7.37409ZM31.8861 17.8638C31.7662 17.72 31.0439 19.6882 29.3095 21.6908C27.922 23.2928 26.3993 24.2483 25.4461 24.7137C24.3092 25.2672 23.0896 25.6317 21.8354 25.7926C22.0398 25.8528 22.3343 25.9321 22.693 26.0032C24.2863 26.3188 25.967 26.2368 27.0142 25.917C30.9816 24.7054 32.1556 18.187 31.8861 17.8638ZM12.4182 1.4396C12.6046 1.42032 11.7478 3.33385 11.5917 5.97844C11.4668 8.0941 11.8901 9.84126 12.2478 10.8399C12.6754 12.0299 13.2943 13.1422 14.0799 14.1329C13.8917 14.0333 13.6254 13.8846 13.319 13.6851C11.9578 12.7988 10.8116 11.5669 10.285 10.6068C8.29 6.96976 11.9997 1.48289 12.4182 1.4396ZM6.31224 9.36348C6.46417 9.25389 6.67522 11.3398 7.85814 13.7103C8.80447 15.6066 10.0423 16.9102 10.8502 17.5976C11.814 18.4161 12.905 19.0719 14.0799 19.5392C13.8671 19.5467 13.5621 19.5505 13.197 19.5302C11.5752 19.4405 9.96747 18.9438 9.03241 18.374C5.48999 16.2154 5.97101 9.60962 6.31224 9.36348Z" fill="#75BF44"/>
<path d="M16.4238 25.2578V30.5019H13.9629L13.974 26.1631L13.9763 25.2607L13.9898 20.0178L13.9922 19.1072L14.0039 14.5158L14.0062 13.5988L14.0203 7.94336L16.4226 7.29883V14.5223C16.4226 16.075 16.4228 17.6027 16.4232 19.1055V20.0295C16.4232 21.806 16.4234 23.5488 16.4238 25.2578Z" fill="#75BF44"/>
<path d="M16.4235 25.2578V26.1818C16.0436 26.3451 15.6345 26.4294 15.2211 26.4297H15.1865C14.7683 26.4242 14.3556 26.3335 13.9736 26.1631L13.976 25.2608C14.0608 25.2518 14.1463 25.2679 14.2221 25.307C14.5307 25.4673 14.8734 25.5509 15.2211 25.5509C15.5689 25.5509 15.9115 25.4673 16.2201 25.307C16.283 25.2747 16.3527 25.2578 16.4235 25.2578ZM16.4235 19.1055V20.0295H16.4229C16.0432 20.1927 15.6343 20.277 15.2211 20.2773H15.1865C14.7742 20.2719 14.3671 20.1836 13.9895 20.0178L13.9918 19.1072C14.0715 19.1013 14.1512 19.1177 14.2221 19.1547C14.5307 19.3149 14.8734 19.3986 15.2211 19.3986C15.5689 19.3986 15.9115 19.3149 16.2201 19.1547C16.2828 19.1223 16.3523 19.1055 16.4229 19.1055H16.4235ZM16.4235 13.5977V14.5217C16.4229 14.5217 16.4229 14.5223 16.4223 14.5223C16.0428 14.6853 15.6341 14.7694 15.2211 14.7695H15.1865C14.7793 14.7642 14.3771 14.678 14.0035 14.5158L14.0059 13.5988C14.0809 13.5958 14.1554 13.6124 14.2221 13.6469C14.5307 13.8071 14.8734 13.8908 15.2211 13.8908C15.5689 13.8908 15.9115 13.8071 16.2201 13.6469C16.2826 13.6145 16.3519 13.5977 16.4223 13.5977L16.4235 13.5977Z" fill="#5DAE47"/>
<path d="M21.835 4.36914H19.4326V30.5605H21.835V4.36914Z" fill="#75BF44"/>
<path d="M21.835 12.9531V13.8807C21.4576 14.0417 21.0516 14.1248 20.6414 14.125H20.6068C20.2028 14.1197 19.8037 14.0347 19.4326 13.8748V12.9543C19.5055 12.9525 19.5776 12.969 19.6424 13.0023C19.951 13.1626 20.2937 13.2462 20.6414 13.2462C20.9892 13.2462 21.3318 13.1626 21.6404 13.0023C21.7006 12.9711 21.7672 12.9543 21.835 12.9531ZM19.4326 19.1066C19.5055 19.1048 19.5776 19.1213 19.6424 19.1547C19.951 19.3149 20.2937 19.3986 20.6414 19.3986C20.9892 19.3986 21.3318 19.3149 21.6404 19.1547C21.7006 19.1235 21.7672 19.1066 21.835 19.1055V20.033C21.4576 20.194 21.0517 20.2771 20.6414 20.2773H20.6068C20.2028 20.272 19.8038 20.187 19.4326 20.0271V19.1066ZM21.835 25.2578V26.1853C21.4576 26.3464 21.0516 26.4295 20.6414 26.4297H20.6068C20.2028 26.4244 19.8037 26.3393 19.4326 26.1795V25.259C19.5055 25.2572 19.5776 25.2737 19.6424 25.307C19.951 25.4673 20.2937 25.5509 20.6414 25.5509C20.9892 25.5509 21.3318 25.4673 21.6404 25.307C21.7006 25.2758 21.7672 25.259 21.835 25.2578Z" fill="#5DAE47"/>
<path d="M63.9355 7.55273L63.8789 10.2573L57.2661 10.5122L57.4644 28.3823L54.335 28.439V10.6255L47.6372 10.8945L47.5806 7.90674L63.9355 7.55273ZM72.1343 26.6973C72.6346 26.6973 73.1302 26.6217 73.6211 26.4707C74.112 26.3102 74.5651 26.0837 74.9805 25.791C75.3958 25.4889 75.7546 25.116 76.0566 24.6724C76.3682 24.2287 76.5947 23.7142 76.7363 23.1289L79.4692 23.6812C79.2049 24.5402 78.832 25.319 78.3506 26.0176C77.8691 26.7161 77.3075 27.3156 76.6655 27.8159C76.0236 28.3162 75.3156 28.7033 74.5415 28.9771C73.7769 29.2508 72.9744 29.3877 72.1343 29.3877C70.8882 29.3877 69.7837 29.1989 68.8208 28.8213C67.8579 28.4437 67.0461 27.9103 66.3853 27.2212C65.7244 26.5321 65.2194 25.7013 64.8701 24.729C64.5303 23.7567 64.3604 22.6711 64.3604 21.4722C64.3604 20.2922 64.5586 19.1924 64.9551 18.1729C65.361 17.1439 65.9132 16.2518 66.6118 15.4966C67.3104 14.7414 68.1317 14.1466 69.0757 13.7124C70.0197 13.2782 71.0392 13.061 72.1343 13.061C73.116 13.061 74.0412 13.2546 74.9097 13.6416C75.7782 14.0192 76.5475 14.5479 77.2178 15.2275C77.888 15.8978 78.4403 16.6908 78.8745 17.6064C79.3088 18.5221 79.5825 19.5133 79.6958 20.5801L67.4331 22.4067C67.4992 23.077 67.6644 23.6812 67.9287 24.2192C68.193 24.7479 68.5282 25.1963 68.9341 25.5645C69.3494 25.9326 69.8262 26.2158 70.3643 26.4141C70.9118 26.6029 71.5018 26.6973 72.1343 26.6973ZM76.0425 18.7534L75.9575 18.4844C75.5988 17.5498 75.1032 16.8182 74.4707 16.2896C73.8477 15.7609 73.0688 15.4966 72.1343 15.4966C71.7378 15.4966 71.3035 15.5674 70.8315 15.709C70.3595 15.8411 69.9017 16.0724 69.458 16.4028C69.0143 16.7332 68.6131 17.1769 68.2544 17.7339C67.9051 18.2814 67.6597 18.9658 67.5181 19.7871L76.0425 18.7534ZM85.6006 6.77393L85.5156 15.1284C86.0632 14.5998 86.6296 14.1938 87.2148 13.9106C87.8096 13.618 88.3571 13.4056 88.8574 13.2734C89.4427 13.113 90.0138 13.0233 90.5708 13.0044C91.2127 13.0044 91.8499 13.0988 92.4824 13.2876C93.1149 13.467 93.7144 13.7266 94.2808 14.0664C94.8472 14.3968 95.3664 14.798 95.8384 15.27C96.3198 15.742 96.7305 16.2707 97.0703 16.856C97.4196 17.4318 97.6839 18.0549 97.8633 18.7251C98.0426 19.3953 98.1229 20.0986 98.104 20.835C98.0757 21.6468 97.953 22.4115 97.7358 23.1289C97.5187 23.8464 97.2308 24.5072 96.8721 25.1113C96.5228 25.7061 96.1121 26.2441 95.6401 26.7256C95.1681 27.207 94.6631 27.613 94.125 27.9434C93.5964 28.2738 93.0441 28.5239 92.4683 28.6938C91.8924 28.8732 91.326 28.9629 90.769 28.9629C90.1932 28.944 89.5985 28.8543 88.9849 28.6938C88.4562 28.5617 87.8757 28.3493 87.2432 28.0566C86.6107 27.764 85.9876 27.3486 85.374 26.8105V28.6655L82.7402 28.7222L82.4995 6.88721L85.6006 6.77393ZM95.0596 21.104C95.1068 20.396 95.0171 19.7163 94.7905 19.0649C94.5734 18.4041 94.2477 17.8236 93.8135 17.3232C93.3887 16.8229 92.8695 16.4264 92.2559 16.1338C91.6517 15.8411 90.9909 15.6995 90.2734 15.709C89.6882 15.7184 89.1359 15.8175 88.6167 16.0063C88.1069 16.1951 87.6444 16.45 87.229 16.771C86.8231 17.092 86.4691 17.4648 86.167 17.8896C85.8649 18.3145 85.6289 18.7676 85.459 19.249L85.4307 22.6333C85.6006 23.2186 85.8413 23.7378 86.1528 24.1909C86.4644 24.6346 86.8231 25.0122 87.229 25.3237C87.6444 25.6258 88.0881 25.8571 88.5601 26.0176C89.0415 26.1686 89.5277 26.2489 90.0186 26.2583C90.7077 26.2772 91.3496 26.1545 91.9443 25.8901C92.5485 25.6258 93.0724 25.2624 93.5161 24.7998C93.9692 24.3278 94.328 23.7756 94.5923 23.1431C94.866 22.5106 95.0218 21.8309 95.0596 21.104ZM112.151 29.0195L112.094 24.9556C111.783 25.5125 111.429 26.0412 111.032 26.5415C110.636 27.0324 110.206 27.4666 109.744 27.8442C109.281 28.2124 108.785 28.505 108.257 28.7222C107.738 28.9393 107.19 29.0384 106.614 29.0195C105.765 28.9912 105.033 28.8307 104.419 28.5381C103.815 28.2454 103.306 27.8584 102.89 27.377C102.475 26.8861 102.14 26.3244 101.885 25.6919C101.639 25.05 101.451 24.375 101.318 23.667C101.186 22.959 101.097 22.2368 101.049 21.5005C101.012 20.7547 100.993 20.0326 100.993 19.334C100.993 18.3522 101.035 17.361 101.12 16.3604C101.205 15.3503 101.328 14.3213 101.488 13.2734L104.391 13.3584C104.24 14.529 104.136 15.5815 104.08 16.5161C104.032 17.4507 104.009 18.272 104.009 18.98C104.009 19.3009 104.014 19.7069 104.023 20.1978C104.032 20.6886 104.065 21.2126 104.122 21.7695C104.188 22.3171 104.287 22.8599 104.419 23.3979C104.552 23.936 104.736 24.4175 104.972 24.8423C105.217 25.2576 105.524 25.5786 105.892 25.8052C106.26 26.0317 106.713 26.1073 107.251 26.0317C107.978 25.9279 108.734 25.4276 109.517 24.5308C110.31 23.634 111.141 22.2557 112.009 20.396C111.981 18.895 111.953 17.6961 111.924 16.7993C111.905 15.9025 111.891 15.2181 111.882 14.7461C111.863 14.1891 111.849 13.8021 111.839 13.585L114.884 13.2451C114.94 14.8688 114.988 16.3368 115.025 17.6489C115.073 18.9517 115.115 20.127 115.153 21.1748C115.191 22.2132 115.219 23.1289 115.238 23.9219C115.266 24.7054 115.29 25.3851 115.309 25.9609C115.346 27.3109 115.37 28.3115 115.379 28.9629L112.151 29.0195ZM130.276 29.0195L130.219 24.9556C129.908 25.5125 129.554 26.0412 129.157 26.5415C128.761 27.0324 128.331 27.4666 127.869 27.8442C127.406 28.2124 126.91 28.505 126.382 28.7222C125.863 28.9393 125.315 29.0384 124.739 29.0195C123.89 28.9912 123.158 28.8307 122.544 28.5381C121.94 28.2454 121.431 27.8584 121.015 27.377C120.6 26.8861 120.265 26.3244 120.01 25.6919C119.764 25.05 119.576 24.375 119.443 23.667C119.311 22.959 119.222 22.2368 119.174 21.5005C119.137 20.7547 119.118 20.0326 119.118 19.334C119.118 18.3522 119.16 17.361 119.245 16.3604C119.33 15.3503 119.453 14.3213 119.613 13.2734L122.516 13.3584C122.365 14.529 122.261 15.5815 122.205 16.5161C122.157 17.4507 122.134 18.272 122.134 18.98C122.134 19.3009 122.139 19.7069 122.148 20.1978C122.157 20.6886 122.19 21.2126 122.247 21.7695C122.313 22.3171 122.412 22.8599 122.544 23.3979C122.677 23.936 122.861 24.4175 123.097 24.8423C123.342 25.2576 123.649 25.5786 124.017 25.8052C124.385 26.0317 124.838 26.1073 125.376 26.0317C126.103 25.9279 126.859 25.4276 127.642 24.5308C128.435 23.634 129.266 22.2557 130.134 20.396C130.106 18.895 130.078 17.6961 130.049 16.7993C130.03 15.9025 130.016 15.2181 130.007 14.7461C129.988 14.1891 129.974 13.8021 129.964 13.585L133.009 13.2451C133.065 14.8688 133.113 16.3368 133.15 17.6489C133.198 18.9517 133.24 20.127 133.278 21.1748C133.316 22.2132 133.344 23.1289 133.363 23.9219C133.391 24.7054 133.415 25.3851 133.434 25.9609C133.471 27.3109 133.495 28.3115 133.504 28.9629L130.276 29.0195Z" fill="white"/>
</g>
<defs>
<clipPath id="clip0_722_1613">
<rect width="176" height="32" fill="white"/>
</clipPath>
</defs>
</svg>
